# xmcd CD database file
#
# Track frame offsets:
#	150
#	12590
#	30992
#	52703
#	74487
#	86845
#	109185
#	131872
#	146056
#	167240
#	190047
#	213185
#	232457
#	253604
#	274657
#
# Disc length: 3983 seconds
#
# Revision: 7
# Processed by: cddbd v1.5.2PL0 Copyright (c) Steve Scherf et al.
# Submitted via: CDex 1.70beta2
#
DISCID=de0f8d0f
DTITLE=女子十二楽坊 - Beautiful Energy
DYEAR=2004
DGENRE=Other
TTITLE0=奇跡
TTITLE1=自由
TTITLE2=世界に一つだけの花
TTITLE3=香格里拉
TTITLE4=五拍
TTITLE5=川の流れのように
TTITLE6=女児夢
TTITLE7=阿拉木汗
TTITLE8=劉三姐
TTITLE9=ラブ・ストーリーは突然に
TTITLE10=山水
TTITLE11=七拍
TTITLE12=紫禁城
TTITLE13=無詞
TTITLE14=地上の星
EXTD=YEAR: 2004
EXTT0=
EXTT1=
EXTT2=
EXTT3=
EXTT4=
EXTT5=
EXTT6=
EXTT7=
EXTT8=
EXTT9=
EXTT10=
EXTT11=
EXTT12=
EXTT13=
EXTT14=
PLAYORDER=
